<svg xmlns="http://www.w3.org/2000/svg" width="9" height="15" fill="none"><path fill="#fff" d="M3.6 12.44c.83 0 1.45-.22 1.88-.66.44-.44.66-.97.66-1.6 0-.76-.23-1.32-.68-1.68-.45-.36-1.17-.54-2.14-.54H1.88V6.58l2.42-3.3 1.14-.9-1.58.18H.5V.36h7.64v1.42L5.32 5.56l-.88.54v.1l.84-.12c.47.04.9.15 1.32.32a3.43 3.43 0 0 1 1.86 1.96c.19.48.28 1.04.28 1.66a4.8 4.8 0 0 1-.4 2.04 3.87 3.87 0 0 1-1.08 1.44c-.45.39-.99.68-1.6.86-.61.19-1.27.28-1.98.28-.59 0-1.2-.05-1.82-.16a5.28 5.28 0 0 1-1.52-.46l.7-2.16a5.76 5.76 0 0 0 2.56.58Z"/></svg>