<svg xmlns="http://www.w3.org/2000/svg" width="22" height="15" fill="none"><path fill="#fff" d="M1.63 12.16H4.4v-7.9l.3-1.36-.96 1.18L1.97 5.3.87 3.8 5.43.12h1.46v12.04H9.6v2.2H1.63v-2.2Zm10.12-4.82c0-2.45.42-4.27 1.26-5.46a4.15 4.15 0 0 1 3.62-1.8c1.68 0 2.92.6 3.7 1.78.8 1.18 1.18 3 1.18 5.48 0 2.47-.42 4.3-1.28 5.5a4.15 4.15 0 0 1-3.62 1.8c-1.66 0-2.89-.62-3.68-1.88-.78-1.26-1.18-3.07-1.18-5.42Zm2.6 0c0 1.63.18 2.89.52 3.78.36.88.95 1.32 1.76 1.32.8 0 1.36-.4 1.72-1.22.38-.81.56-2.1.56-3.88 0-1.61-.17-2.86-.52-3.74-.34-.88-.94-1.32-1.78-1.32-.8 0-1.38.42-1.74 1.24-.34.83-.52 2.1-.52 3.82Z"/></svg>